<?xml version="1.0" encoding="UTF-8" standalone="no"?>
<!-- Generator: Adobe Illustrator 15.0.2, SVG Export Plug-In . SVG Version: 6.00 Build 0)  -->

<svg
   xmlns:dc="http://purl.org/dc/elements/1.1/"
   xmlns:cc="http://creativecommons.org/ns#"
   xmlns:rdf="http://www.w3.org/1999/02/22-rdf-syntax-ns#"
   xmlns:svg="http://www.w3.org/2000/svg"
   xmlns="http://www.w3.org/2000/svg"
   xmlns:sodipodi="http://sodipodi.sourceforge.net/DTD/sodipodi-0.dtd"
   xmlns:inkscape="http://www.inkscape.org/namespaces/inkscape"
   version="1.1"
   id="Layer_1"
   x="0px"
   y="0px"
   width="239.04645"
   height="220.19751"
   viewBox="0 0 239.04645 220.1975"
   enable-background="new 0 0 256.09 198.96"
   xml:space="preserve"
   inkscape:version="0.48.3.1 r9886"
   sodipodi:docname="znak_pancerny_2.svg"><metadata
   id="metadata59"><rdf:RDF><cc:Work
       rdf:about=""><dc:format>image/svg+xml</dc:format><dc:type
         rdf:resource="http://purl.org/dc/dcmitype/StillImage" /><dc:title></dc:title></cc:Work></rdf:RDF></metadata><defs
   id="defs57">
	
	
	
	
	
	
	
	
	
	
	
	
	
	
	
	
	
	
	
	
	
	
	
	
	
</defs><sodipodi:namedview
   pagecolor="#ffffff"
   bordercolor="#666666"
   borderopacity="1"
   objecttolerance="10"
   gridtolerance="10"
   guidetolerance="10"
   inkscape:pageopacity="0"
   inkscape:pageshadow="2"
   inkscape:window-width="1280"
   inkscape:window-height="750"
   id="namedview55"
   showgrid="false"
   inkscape:zoom="1.7201431"
   inkscape:cx="-70.28751"
   inkscape:cy="93.94945"
   inkscape:window-x="-8"
   inkscape:window-y="-8"
   inkscape:window-maximized="1"
   inkscape:current-layer="Layer_1"
   fit-margin-top="0"
   fit-margin-left="0"
   fit-margin-right="0"
   fit-margin-bottom="0"
   showguides="true"
   inkscape:guide-bbox="true" />

<g
   id="g3053"
   transform="translate(-242.47679,32.224819)"><g
     id="g3127"
     transform="matrix(0.7077598,0.70645316,-0.70645316,0.7077598,353.91999,-78.041384)"><g
       transform="matrix(1.0704789,0,0,1.0704789,-311.42356,21.622229)"
       id="g3129"><path
         transform="matrix(0.90863793,0,0,0.90863793,570.60755,6.1791754)"
         d="m -90.436363,84.270248 c 0,57.438622 -46.563207,104.001822 -104.001827,104.001822 -57.43862,0 -104.00182,-46.5632 -104.00182,-104.001822 0,-57.438621 46.5632,-104.001823 104.00182,-104.001823 57.43862,0 104.001827,46.563202 104.001827,104.001823 z"
         sodipodi:ry="104.00182"
         sodipodi:rx="104.00182"
         sodipodi:cy="84.270248"
         sodipodi:cx="-194.43819"
         id="path3131"
         style="opacity:0.97826089;color:#000000;fill:#000000;fill-opacity:1;stroke:#000000;stroke-width:2.05617905;stroke-linecap:butt;stroke-linejoin:miter;stroke-miterlimit:4;stroke-opacity:1;stroke-dasharray:none;stroke-dashoffset:0;marker:none;visibility:visible;display:inline;overflow:visible;enable-background:accumulate"
         sodipodi:type="arc" /><path
         sodipodi:type="arc"
         style="opacity:0.97826089;color:#000000;fill:none;stroke:#ffffff;stroke-width:3.36951876;stroke-linecap:butt;stroke-linejoin:miter;stroke-miterlimit:4;stroke-opacity:1;stroke-dasharray:none;stroke-dashoffset:0;marker:none;visibility:visible;display:inline;overflow:visible;enable-background:accumulate"
         id="path3133"
         sodipodi:cx="-194.43819"
         sodipodi:cy="84.270248"
         sodipodi:rx="104.00182"
         sodipodi:ry="104.00182"
         d="m -90.436363,84.270248 c 0,57.438622 -46.563207,104.001822 -104.001827,104.001822 -57.43862,0 -104.00182,-46.5632 -104.00182,-104.001822 0,-57.438621 46.5632,-104.001823 104.00182,-104.001823 57.43862,0 104.001827,46.563202 104.001827,104.001823 z"
         transform="matrix(0.8317162,0,0,0.8317162,555.65103,12.661389)" /><path
         transform="matrix(0.78364012,0,0,0.78364012,546.3032,16.712772)"
         d="m -90.436363,84.270248 c 0,57.438622 -46.563207,104.001822 -104.001827,104.001822 -57.43862,0 -104.00182,-46.5632 -104.00182,-104.001822 0,-57.438621 46.5632,-104.001823 104.00182,-104.001823 57.43862,0 104.001827,46.563202 104.001827,104.001823 z"
         sodipodi:ry="104.00182"
         sodipodi:rx="104.00182"
         sodipodi:cy="84.270248"
         sodipodi:cx="-194.43819"
         id="path3135"
         style="opacity:0.97826089;color:#000000;fill:#ffffff;fill-opacity:1;stroke:#000000;stroke-width:2.38415861;stroke-linecap:butt;stroke-linejoin:miter;stroke-miterlimit:4;stroke-opacity:1;stroke-dasharray:none;stroke-dashoffset:0;marker:none;visibility:visible;display:inline;overflow:visible;enable-background:accumulate"
         sodipodi:type="arc" /><path
         style="fill:#000000;fill-opacity:1;stroke:#000000;stroke-width:0.93416125px;stroke-linecap:butt;stroke-linejoin:miter;stroke-opacity:1"
         d="m 320.77777,31.379874 -9.63806,-8.708415 3.88422,-5.050803 10.76575,7.242038 z"
         id="path3137"
         inkscape:connector-curvature="0"
         sodipodi:nodetypes="ccccc" /><path
         sodipodi:nodetypes="ccccc"
         inkscape:connector-curvature="0"
         id="path3139"
         d="m 388.05422,-6.7827324 1.0277,-12.9488426 6.37164,0 0.82215,12.9488426 z"
         style="fill:#000000;fill-opacity:1;stroke:#000000;stroke-width:0.93416125px;stroke-linecap:butt;stroke-linejoin:miter;stroke-opacity:1" /><path
         sodipodi:nodetypes="ccccc"
         inkscape:connector-curvature="0"
         id="path3141"
         d="m 312.82487,44.442287 -10.81821,-7.189943 3.09593,-5.56894 11.71701,5.573135 z"
         style="fill:#000000;fill-opacity:1;stroke:#000000;stroke-width:0.93416125px;stroke-linecap:butt;stroke-linejoin:miter;stroke-opacity:1" /><path
         sodipodi:nodetypes="ccccc"
         inkscape:connector-curvature="0"
         id="path3143"
         d="m 329.98635,20.193092 -7.97561,-10.2527216 4.70388,-4.2978289 9.34127,9.0049515 z"
         style="fill:#000000;fill-opacity:1;stroke:#000000;stroke-width:0.93416125px;stroke-linecap:butt;stroke-linejoin:miter;stroke-opacity:1" /><path
         style="fill:#000000;fill-opacity:1;stroke:#000000;stroke-width:0.93416125px;stroke-linecap:butt;stroke-linejoin:miter;stroke-opacity:1"
         d="m 342.75273,9.6589927 -6.27743,-11.3720039 5.31709,-3.5108898 7.82113,10.3527027 z"
         id="path3145"
         inkscape:connector-curvature="0"
         sodipodi:nodetypes="ccccc" /><path
         sodipodi:nodetypes="ccccc"
         inkscape:connector-curvature="0"
         id="path3147"
         d="m 356.65159,1.2315935 -3.54436,-12.4966475 5.97309,-2.218109 5.2785,11.8526735 z"
         style="fill:#000000;fill-opacity:1;stroke:#000000;stroke-width:0.93416125px;stroke-linecap:butt;stroke-linejoin:miter;stroke-opacity:1" /><path
         style="fill:#000000;fill-opacity:1;stroke:#000000;stroke-width:0.93416125px;stroke-linecap:butt;stroke-linejoin:miter;stroke-opacity:1"
         d="m 371.88292,-3.9480322 -2.14427,-12.8113588 6.18133,-1.545691 3.93883,12.3626049 z"
         id="path3149"
         inkscape:connector-curvature="0"
         sodipodi:nodetypes="ccccc" /><path
         sodipodi:nodetypes="ccccc"
         inkscape:connector-curvature="0"
         id="path3151"
         d="m 450.32293,13.226838 9.45761,-8.9040612 4.72096,4.2790506 -8.08699,10.1463786 z"
         style="fill:#000000;fill-opacity:1;stroke:#000000;stroke-width:0.93416125px;stroke-linecap:butt;stroke-linejoin:miter;stroke-opacity:1" /><path
         style="fill:#000000;fill-opacity:1;stroke:#000000;stroke-width:0.93416125px;stroke-linecap:butt;stroke-linejoin:miter;stroke-opacity:1"
         d="m 437.07966,4.3244969 7.70508,-10.4575568 5.41258,3.361804 -6.13367,11.4335732 z"
         id="path3153"
         inkscape:connector-curvature="0"
         sodipodi:nodetypes="ccccc" /><path
         sodipodi:nodetypes="ccccc"
         inkscape:connector-curvature="0"
         id="path3155"
         d="m 422.45908,-2.0133375 5.4166,-11.8063175 5.98329,2.190435 -3.6795,12.44225725 z"
         style="fill:#000000;fill-opacity:1;stroke:#000000;stroke-width:0.93416125px;stroke-linecap:butt;stroke-linejoin:miter;stroke-opacity:1" /><path
         style="fill:#000000;fill-opacity:1;stroke:#000000;stroke-width:0.93416125px;stroke-linecap:butt;stroke-linejoin:miter;stroke-opacity:1"
         d="m 406.31219,-5.7457294 3.2622,-12.5732546 6.27471,1.107209 -1.4405,12.8947057 z"
         id="path3157"
         inkscape:connector-curvature="0"
         sodipodi:nodetypes="ccccc" /><path
         style="fill:#000000;fill-opacity:1;stroke:#000000;stroke-width:0.93416125px;stroke-linecap:butt;stroke-linejoin:miter;stroke-opacity:1"
         d="m 307.56999,59.094929 -11.966,-5.054059 2.00697,-6.047306 12.54866,3.298374 z"
         id="path3159"
         inkscape:connector-curvature="0"
         sodipodi:nodetypes="ccccc" /><path
         sodipodi:nodetypes="ccccc"
         inkscape:connector-curvature="0"
         id="path3161"
         d="m 304.35162,75.695676 -12.52543,-3.441272 1.19664,-6.258267 12.87282,1.624341 z"
         style="fill:#000000;fill-opacity:1;stroke:#000000;stroke-width:0.93416125px;stroke-linecap:butt;stroke-linejoin:miter;stroke-opacity:1" /><path
         style="fill:#000000;fill-opacity:1;stroke:#000000;stroke-width:0.93416125px;stroke-linecap:butt;stroke-linejoin:miter;stroke-opacity:1"
         d="m 304.80913,90.363769 -12.98877,-0.144437 -0.43343,-6.356885 12.8629,-1.701119 z"
         id="path3163"
         inkscape:connector-curvature="0"
         sodipodi:nodetypes="ccccc" /><path
         sodipodi:nodetypes="ccccc"
         inkscape:connector-curvature="0"
         id="path3165"
         d="m 307.46976,104.97507 -12.82015,2.09114 -1.52004,-6.18768 12.37881,-3.887557 z"
         style="fill:#000000;fill-opacity:1;stroke:#000000;stroke-width:0.93416125px;stroke-linecap:butt;stroke-linejoin:miter;stroke-opacity:1" /><path
         style="fill:#000000;fill-opacity:1;stroke:#000000;stroke-width:0.93416125px;stroke-linecap:butt;stroke-linejoin:miter;stroke-opacity:1"
         d="m 312.41112,119.02166 -12.21702,4.41289 -2.63193,-5.80266 11.45287,-6.09753 z"
         id="path3167"
         inkscape:connector-curvature="0"
         sodipodi:nodetypes="ccccc" /><path
         sodipodi:nodetypes="ccccc"
         inkscape:connector-curvature="0"
         id="path3169"
         d="m 319.95784,133.08512 -11.40437,6.21847 -3.4833,-5.33523 10.39306,-7.76739 z"
         style="fill:#000000;fill-opacity:1;stroke:#000000;stroke-width:0.93416125px;stroke-linecap:butt;stroke-linejoin:miter;stroke-opacity:1" /><path
         style="fill:#000000;fill-opacity:1;stroke:#000000;stroke-width:0.93416125px;stroke-linecap:butt;stroke-linejoin:miter;stroke-opacity:1"
         d="m 330.41375,145.81302 -10.42389,7.75057 -4.19443,-4.79633 9.20613,-9.14304 z"
         id="path3171"
         inkscape:connector-curvature="0"
         sodipodi:nodetypes="ccccc" /><path
         sodipodi:nodetypes="ccccc"
         inkscape:connector-curvature="0"
         id="path3173"
         d="m 343.51504,156.84679 -8.86451,9.4947 -4.98677,-3.96613 7.41673,-10.64614 z"
         style="fill:#000000;fill-opacity:1;stroke:#000000;stroke-width:0.93416125px;stroke-linecap:butt;stroke-linejoin:miter;stroke-opacity:1" /><path
         style="fill:#000000;fill-opacity:1;stroke:#000000;stroke-width:0.93416125px;stroke-linecap:butt;stroke-linejoin:miter;stroke-opacity:1"
         d="m 358.32193,164.88631 -6.6664,11.14845 -5.71013,-2.82711 5.00862,-11.96921 z"
         id="path3175"
         inkscape:connector-curvature="0"
         sodipodi:nodetypes="ccccc" /><path
         sodipodi:nodetypes="ccccc"
         inkscape:connector-curvature="0"
         id="path3177"
         d="m 375.25528,170.45338 -4.64264,12.13156 -6.11231,-1.79937 2.8681,-12.65394 z"
         style="fill:#000000;fill-opacity:1;stroke:#000000;stroke-width:0.93416125px;stroke-linecap:butt;stroke-linejoin:miter;stroke-opacity:1" /><path
         style="fill:#000000;fill-opacity:1;stroke:#000000;stroke-width:0.93416125px;stroke-linecap:butt;stroke-linejoin:miter;stroke-opacity:1"
         d="m 393.6046,172.15193 -1.49355,12.90342 -6.36753,-0.22956 -0.35508,-12.97005 z"
         id="path3179"
         inkscape:connector-curvature="0"
         sodipodi:nodetypes="ccccc" /><path
         sodipodi:nodetypes="ccccc"
         inkscape:connector-curvature="0"
         id="path3181"
         d="m 412.0976,170.47244 0.92214,12.9568 -6.29988,0.95374 -2.75113,-12.67989 z"
         style="fill:#000000;fill-opacity:1;stroke:#000000;stroke-width:0.93416125px;stroke-linecap:butt;stroke-linejoin:miter;stroke-opacity:1" /><path
         style="fill:#000000;fill-opacity:1;stroke:#000000;stroke-width:0.93416125px;stroke-linecap:butt;stroke-linejoin:miter;stroke-opacity:1"
         d="m 429.62085,164.71932 3.69663,12.45246 -5.94559,2.29086 -5.42277,-11.78737 z"
         id="path3183"
         inkscape:connector-curvature="0"
         sodipodi:nodetypes="ccccc" /><path
         sodipodi:nodetypes="ccccc"
         inkscape:connector-curvature="0"
         id="path3185"
         d="m 445.89587,155.64053 5.94126,11.5512 -5.41778,3.35347 -7.51417,-10.57761 z"
         style="fill:#000000;fill-opacity:1;stroke:#000000;stroke-width:0.93416125px;stroke-linecap:butt;stroke-linejoin:miter;stroke-opacity:1" /><path
         style="fill:#000000;fill-opacity:1;stroke:#000000;stroke-width:0.93416125px;stroke-linecap:butt;stroke-linejoin:miter;stroke-opacity:1"
         d="m 459.48276,143.75697 8.02134,10.217 -4.68465,4.3188 -9.3814,-8.96313 z"
         id="path3187"
         inkscape:connector-curvature="0"
         sodipodi:nodetypes="ccccc" /><path
         sodipodi:nodetypes="ccccc"
         inkscape:connector-curvature="0"
         id="path3189"
         d="m 469.36232,131.14961 9.89219,8.41864 -3.73267,5.16382 -10.97588,-6.91943 z"
         style="fill:#000000;fill-opacity:1;stroke:#000000;stroke-width:0.93416125px;stroke-linecap:butt;stroke-linejoin:miter;stroke-opacity:1" /><path
         style="fill:#000000;fill-opacity:1;stroke:#000000;stroke-width:0.93416125px;stroke-linecap:butt;stroke-linejoin:miter;stroke-opacity:1"
         d="m 477.42232,115.49023 11.25745,6.48065 -2.73204,5.75619 -12.05063,-4.80946 z"
         id="path3191"
         inkscape:connector-curvature="0"
         sodipodi:nodetypes="ccccc" /><path
         sodipodi:nodetypes="ccccc"
         inkscape:connector-curvature="0"
         id="path3193"
         d="m 481.99671,99.361379 12.35347,4.015051 -1.48387,6.19644 -12.78428,-2.21605 z"
         style="fill:#000000;fill-opacity:1;stroke:#000000;stroke-width:0.93416125px;stroke-linecap:butt;stroke-linejoin:miter;stroke-opacity:1" /><path
         style="fill:#000000;fill-opacity:1;stroke:#000000;stroke-width:0.93416125px;stroke-linecap:butt;stroke-linejoin:miter;stroke-opacity:1"
         d="m 483.45009,82.669408 12.8631,1.808207 -0.38499,6.359994 -12.97487,0.03828 z"
         id="path3195"
         inkscape:connector-curvature="0"
         sodipodi:nodetypes="ccccc" /><path
         sodipodi:nodetypes="ccccc"
         inkscape:connector-curvature="0"
         id="path3197"
         d="m 482.18552,68.04732 12.97649,-0.582859 0.7886,6.322646 -12.74753,2.418502 z"
         style="fill:#000000;fill-opacity:1;stroke:#000000;stroke-width:0.93416125px;stroke-linecap:butt;stroke-linejoin:miter;stroke-opacity:1" /><path
         style="fill:#000000;fill-opacity:1;stroke:#000000;stroke-width:0.93416125px;stroke-linecap:butt;stroke-linejoin:miter;stroke-opacity:1"
         d="m 477.90079,51.924849 12.64086,-2.989598 1.95243,6.065128 -12.07401,4.750475 z"
         id="path3199"
         inkscape:connector-curvature="0"
         sodipodi:nodetypes="ccccc" /><path
         sodipodi:nodetypes="ccccc"
         inkscape:connector-curvature="0"
         id="path3201"
         d="m 471.23689,37.704046 12.00238,-4.967091 2.89461,5.676178 -11.16199,6.615044 z"
         style="fill:#000000;fill-opacity:1;stroke:#000000;stroke-width:0.93416125px;stroke-linecap:butt;stroke-linejoin:miter;stroke-opacity:1" /><path
         style="fill:#000000;fill-opacity:1;stroke:#000000;stroke-width:0.93416125px;stroke-linecap:butt;stroke-linejoin:miter;stroke-opacity:1"
         d="m 462.52088,25.484181 10.73004,-7.320886 3.9962,4.96268 -9.56983,8.76169 z"
         id="path3203"
         inkscape:connector-curvature="0"
         sodipodi:nodetypes="ccccc" /></g><g
       transform="translate(-288.58658,31.201745)"
       id="g3205"><g
         id="g3207"
         transform="matrix(0.99637286,-0.08509483,0.08509483,0.99637286,257.698,-30.277902)"><path
           clip-rule="evenodd"
           stroke-miterlimit="10"
           d="m 60.463521,42.824378 c 3.114287,-3.437361 8.060493,-3.269177 10.838679,0.104358 6.033059,7.32538 -5.437334,16.126305 -11.130152,9.162743 -2.186886,-2.674986 -2.346973,-6.354755 0.291473,-9.267101 z"
           id="path3209"
           inkscape:connector-curvature="0"
           style="fill-rule:evenodd;stroke:#ffffff;stroke-width:0.49999997;stroke-miterlimit:10" /><path
           clip-rule="evenodd"
           stroke-miterlimit="10"
           d="m 74.850448,35.980495 c 1.352166,-1.591445 5.09347,-2.167982 6.935562,0.582735 1.560574,2.330361 -0.08087,9.262579 -0.270681,11.91988 -0.142688,2.000941 -0.258416,3.531107 -0.472767,5.923284 -0.161466,1.794056 -0.05911,5.009433 -0.810193,5.886628 -1.867817,2.180547 -5.383737,1.618647 -7.085947,-0.769776 -1.633726,-2.292075 -0.445519,-8.149018 -0.103401,-11.61911 0.394702,-3.999963 -0.0097,-9.783823 1.807427,-11.923641 z"
           id="path3211"
           inkscape:connector-curvature="0"
           style="fill-rule:evenodd;stroke:#ffffff;stroke-width:0.5;stroke-miterlimit:10" /><path
           clip-rule="evenodd"
           stroke-miterlimit="10"
           d="m 93.643861,42.118999 c -0.801821,0.565127 -1.485105,0.04565 -2.320786,0.942101 -1.56872,1.934934 0.852987,3.239309 1.625102,5.468368 0.513851,1.483334 -0.243208,5.086877 -0.395694,6.785177 -0.161451,1.800459 0.155097,5.04764 -1.220931,6.524824 -2.252829,2.418249 -7.374014,1.940864 -9.000535,-2.00199 -0.570297,-1.382776 -0.147824,-4.564611 0.02161,-6.484407 0.35225,-3.988927 0.740955,-8.588429 1.055502,-12.858846 0.125162,-1.695578 0.369891,-5.395319 1.03389,-6.374439 2.041949,-3.010883 7.18826,-2.732057 9.260888,1.176753 1.177053,2.220415 -0.174513,4.120615 -0.05905,6.822459 z"
           id="path3213"
           inkscape:connector-curvature="0"
           style="fill-rule:evenodd;stroke:#ffffff;stroke-width:0.5;stroke-miterlimit:10" /><path
           clip-rule="evenodd"
           stroke-miterlimit="10"
           d="m 70.883124,53.64414 c 0.95115,0.849447 -0.570413,3.993678 0.539512,6.033252 1.984527,3.646028 6.54274,4.585036 10.086125,1.437106 2.601263,3.966237 7.694806,5.018879 11.13506,1.209647 2.564368,4.65287 6.881072,5.438325 10.728079,3.384589 3.30199,5.228753 7.31766,3.874733 11.39996,1.920529 -0.69624,3.377567 0.88881,10.412772 -0.45396,13.60701 -2.58976,6.161321 -11.36575,2.229874 -16.173888,7.460984 -1.151062,1.25268 -1.074282,2.569041 -1.675847,4.426956 -11.613185,-0.474927 -23.028138,-2.78117 -34.604499,-3.588526 0.603049,-10.631943 2.505188,-21.122761 3.783089,-31.681392 1.77841,-0.807557 4.327373,-2.44894 5.236369,-4.210155 z"
           id="path3215"
           inkscape:connector-curvature="0"
           style="fill-rule:evenodd;stroke:#ffffff;stroke-width:0.5;stroke-miterlimit:10" /><path
           clip-rule="evenodd"
           stroke-miterlimit="10"
           d="m 105.71036,41.039977 c -3.4234,0.609649 -6.775792,0.565535 -10.192328,1.111917 -0.278528,-3.027536 -0.635406,-7.566492 3.351694,-8.853911 4.022524,-1.29922 8.967624,3.614413 6.840634,7.741994 z"
           id="path3217"
           inkscape:connector-curvature="0"
           style="fill-rule:evenodd;stroke:#ffffff;stroke-width:0.5;stroke-miterlimit:10" /><path
           clip-rule="evenodd"
           stroke-miterlimit="10"
           d="m 115.15155,38.992227 c 1.36241,0.553427 2.70221,1.30853 4.05288,1.976617 -1.58418,8.192405 -3.03693,17.309507 -4.24929,24.973289 -2.92225,1.758021 -5.7385,2.540319 -8.35482,1.482239 -0.75193,-0.935205 -1.50385,-1.87041 -2.25578,-2.805616 -0.009,-4.553081 4.05932,-8.663236 6.52763,-12.947202 -1.3738,-1.443748 -3.99365,-0.623044 -6.26148,-0.508796 -4.3661,0.219178 -10.169671,0.418761 -12.385305,-6.979412 7.645247,-1.766301 14.981085,-0.671357 22.926165,-5.191119 z"
           id="path3219"
           inkscape:connector-curvature="0"
           style="fill-rule:evenodd;stroke:#ffffff;stroke-width:0.5;stroke-miterlimit:10" /><path
           clip-rule="evenodd"
           stroke-miterlimit="10"
           d="m 117.13491,38.01347 c -3.02617,-0.951815 -6.45417,1.801805 -9.66332,2.534308 -2.04498,-6.330515 7.51773,-9.392133 9.66332,-2.534308 z"
           id="path3221"
           inkscape:connector-curvature="0"
           style="fill-rule:evenodd;stroke:#ffffff;stroke-width:0.5;stroke-miterlimit:10" /><path
           clip-rule="evenodd"
           stroke-miterlimit="10"
           d="m 94.452027,50.399878 c 3.241904,2.632503 6.779653,2.541697 10.350243,2.148614 0.29765,2.8646 -0.2313,5.612374 -1.28971,8.735794 -0.43415,1.279349 -0.34674,2.602556 -0.85515,3.151191 -1.89391,2.04755 -5.815542,0.794323 -7.122599,-0.43235 -4.301085,-4.039228 -0.04041,-9.940079 -1.082784,-13.603249 z"
           id="path3223"
           inkscape:connector-curvature="0"
           style="fill-rule:evenodd;stroke:#ffffff;stroke-width:0.5;stroke-miterlimit:10" /><path
           clip-rule="evenodd"
           stroke-miterlimit="10"
           d="m 127.84795,35.251079 c -3.68066,14.507599 -5.31801,29.239304 -6.15086,44.055562 -1.94049,0.05379 -3.91076,0.381734 -5.7729,-0.285726 -0.0766,-15.08718 2.95191,-29.837752 6.37534,-44.544 1.88471,-0.06412 3.68494,0.642853 5.54842,0.774164 z"
           id="path3225"
           inkscape:connector-curvature="0"
           style="fill-rule:evenodd;stroke:#ffffff;stroke-width:0.5;stroke-miterlimit:10" /><path
           clip-rule="evenodd"
           stroke-miterlimit="10"
           d="m 99.938304,102.03639 c -13.9288,-2.205915 -27.959932,-3.469851 -41.881248,-5.744659 0.731354,-1.854485 0.483546,-3.816052 0.960578,-5.699587 9.727105,1.383167 25.245644,2.521334 36.742784,4.332928 0.896474,0.141487 5.194702,0.717245 5.211772,0.736881 0.71822,0.819875 -0.83501,5.637127 -1.033886,6.374437 z"
           id="path3227"
           inkscape:connector-curvature="0"
           style="fill-rule:evenodd;stroke:#ffffff;stroke-width:0.5;stroke-miterlimit:10" /><path
           clip-rule="evenodd"
           stroke-miterlimit="10"
           d="m 106.33901,52.544731 c 0.75202,-0.113193 1.48495,-0.04424 2.24826,-0.267876 -0.26987,1.279416 -1.54138,2.449305 -2.27739,3.678792 -0.51892,-1.1944 0.2689,-2.246131 0.0291,-3.410916 z"
           id="path3229"
           inkscape:connector-curvature="0"
           style="fill-rule:evenodd;stroke:#ffffff;stroke-width:0.5;stroke-miterlimit:10" /><path
           clip-rule="evenodd"
           stroke-miterlimit="10"
           d="m 78.082683,100.51565 c -0.08949,18.3118 -0.766195,36.56195 -1.515075,54.80212 -8.881359,2.66264 -17.706986,4.80571 -26.594301,7.52319 2.166226,-18.02219 5.123557,-36.90371 7.923815,-55.64225 0.455902,-3.05089 1.066814,-6.25849 0.428589,-8.659353 2.640753,-0.764376 6.701639,0.274239 10.159437,0.762254 3.427495,0.485434 6.78439,0.776139 9.597535,1.214039 z"
           id="path3231"
           inkscape:connector-curvature="0"
           style="fill-rule:evenodd;stroke:#ffffff;stroke-width:0.5;stroke-miterlimit:10" /><path
           clip-rule="evenodd"
           stroke-miterlimit="10"
           d="m 259.73629,76.71989 c -2.26497,-1.136559 -5.08268,-1.46044 -7.65084,-1.855366 -41.36828,-6.348281 -84.14285,-12.3486 -125.68416,-18.433304 0.45227,1.395559 2.45489,1.077529 3.45134,1.228453 42.5017,6.436557 86.90112,12.82677 128.98511,19.474716 -4.80522,2.853663 -9.55222,5.178065 -14.37303,8.168731 -39.94893,-6.77733 -79.92439,-13.290816 -119.84249,-20.358549 1.12541,-5.22647 1.17882,-11.479817 2.43434,-16.123138 37.45336,4.00541 76.23539,9.647397 114.57964,13.812892 2.42603,0.262838 6.3597,0.115465 7.57376,0.993473 0.99769,0.722207 1.72243,2.228451 2.55655,3.179697 2.85127,3.255814 6.18584,6.803115 7.96978,9.912395 z"
           id="path3233"
           inkscape:connector-curvature="0"
           style="fill-rule:evenodd;stroke:#ffffff;stroke-width:0.5;stroke-miterlimit:10" /><path
           clip-rule="evenodd"
           stroke-miterlimit="10"
           d="m 97.916729,103.35383 c 1.218138,13.90246 2.893211,27.85456 4.338331,41.78239 -1.97231,0.8377 -4.515755,2.69022 -5.274433,4.54742 -6.150398,1.61787 -12.342951,3.62378 -18.466315,4.9928 -0.63706,-0.0742 -0.416854,-1.66911 -0.381604,-2.77272 0.518659,-16.46141 1.241547,-34.40994 1.449285,-51.05378 6.132809,0.6392 12.258744,1.34167 18.334736,2.50389 z M 84.11235,114.14489 c 2.758835,-1.77933 -0.821758,-6.87902 -3.081013,-3.06596 -1.35437,2.28611 1.688262,3.96378 3.081013,3.06596 z m 1.196513,14.12772 c 0.07821,-0.84431 -0.911495,-2.13111 -1.767965,-2.58192 -5.969339,0.10832 -0.650258,8.31662 1.767965,2.58192 z m -0.96574,18.33113 c 1.734817,-1.96455 -1.896887,-5.93248 -3.829176,-2.46443 -1.429128,2.56179 2.21381,4.29187 3.829176,2.46443 z"
           id="path3235"
           inkscape:connector-curvature="0"
           style="fill-rule:evenodd;stroke:#ffffff;stroke-width:0.5;stroke-miterlimit:10" /><path
           clip-rule="evenodd"
           stroke-miterlimit="10"
           d="m 198.23746,34.703987 c 7.06819,7.107369 11.07286,15.295934 7.3623,21.796397 -9.71702,-0.644487 -20.28251,-1.852718 -29.31941,-3.526497 7.2931,-6.093495 14.47436,-12.19843 21.95711,-18.2699 z"
           id="path3237"
           inkscape:connector-curvature="0"
           style="fill-rule:evenodd;stroke:#ffffff;stroke-width:0.5;stroke-miterlimit:10" /><path
           clip-rule="evenodd"
           stroke-miterlimit="10"
           d="m 180.5737,76.313926 c -6.81628,5.082662 -14.70396,10.782961 -22.48534,16.846885 -10.77219,8.394179 -25.28779,16.376009 -27.26005,26.229029 -1.02324,5.11096 1.48519,11.1561 3.11486,16.89667 3.00178,10.5719 5.92175,22.43368 4.4649,32.7474 -0.47482,3.3625 -2.66575,6.76262 -5.03444,10.20815 -5.31588,-6.0706 -11.52651,-12.27894 -16.31113,-17.98883 -0.7319,-2.76952 0.54829,-4.35313 0.2453,-6.97222 -0.11854,-1.02358 -0.94847,-2.62874 -1.13353,-3.70792 -0.39672,-2.31275 0.41273,-4.9319 0.46838,-7.46081 0.0991,-4.44746 -0.25395,-10.27908 -1.79805,-14.87588 -1.55575,-4.63363 -5.91245,-12.50836 -4.83865,-16.74253 1.40358,-5.53481 12.55779,-13.792182 18.58285,-18.63646 7.9851,-6.420188 14.89422,-12.043284 21.77007,-18.119516 0.78122,-0.689703 2.1604,-2.536403 3.4034,-3.044357 1.45658,-0.594996 4.84639,0.571294 6.8989,0.920161 6.75454,1.149153 14.05154,2.00587 19.91253,3.700228 z"
           id="path3239"
           inkscape:connector-curvature="0"
           style="fill-rule:evenodd;stroke:#ffffff;stroke-width:0.5;stroke-miterlimit:10" /><path
           clip-rule="evenodd"
           stroke-miterlimit="10"
           d="m 42.784761,166.15836 c 17.595564,-4.83418 35.183949,-9.60228 52.813267,-14.74717 0.197061,1.51862 -0.554512,4.36455 -0.359037,6.44775 -14.150735,7.17008 -28.330641,14.60869 -42.4884,21.84344 -4.210243,-3.42194 -7.639544,-9.23993 -9.96583,-13.54402 z"
           id="path3241"
           inkscape:connector-curvature="0"
           style="fill-rule:evenodd;stroke:#ffffff;stroke-width:0.5;stroke-miterlimit:10" /><path
           clip-rule="evenodd"
           stroke-miterlimit="10"
           d="m 136.38521,138.94237 c -2.79207,-9.37268 -8.09054,-18.79857 0.5705,-27.25068 6.24641,-6.09624 15.20718,-11.918953 22.78234,-18.009547 5.41016,-4.349887 11.29055,-8.386234 17.28563,-12.974156 1.96568,-1.503459 4.19584,-3.673804 5.57457,-4.174125 1.957,-0.709916 5.7807,0.790149 8.39837,1.253046 2.4166,0.42825 6.88839,0.25754 8.1753,1.741637 2.68927,3.103784 -0.7022,9.298927 -3.71903,12.228799 -4.03782,3.921422 -9.56793,7.692821 -14.5892,11.730036 -14.53495,11.68898 -30.11541,23.73097 -44.47848,35.45499 z"
           id="path3243"
           inkscape:connector-curvature="0"
           style="fill-rule:evenodd;stroke:#ffffff;stroke-width:0.5;stroke-miterlimit:10" /><path
           clip-rule="evenodd"
           stroke-miterlimit="10"
           d="m 95.616834,159.09492 c 0.89877,1.46255 1.471209,2.89108 2.934388,4.41567 -13.586074,11.09929 -26.945792,22.22317 -40.323787,33.34506 -4.560646,-1.99693 -7.993878,-7.37935 -11.986624,-12.22722 16.454703,-8.47462 32.893675,-16.80442 49.376023,-25.53351 z"
           id="path3245"
           inkscape:connector-curvature="0"
           style="fill-rule:evenodd;stroke:#ffffff;stroke-width:0.5;stroke-miterlimit:10" /><path
           clip-rule="evenodd"
           stroke-miterlimit="10"
           d="m 99.266316,149.07772 c 8.123574,-8.80141 20.747564,2.54124 15.507504,11.24407 -7.48655,12.4312 -24.746012,-1.23443 -15.507504,-11.24407 z"
           id="path3247"
           inkscape:connector-curvature="0"
           style="fill-rule:evenodd;stroke:#ffffff;stroke-width:0.5;stroke-miterlimit:10" /><path
           clip-rule="evenodd"
           stroke-miterlimit="10"
           d="m 99.454312,164.63221 c 2.459688,0.93508 4.892008,2.10903 7.463788,2.00575 2.0109,17.80097 3.55845,35.55232 5.303,53.32364 -10.03491,2.89723 -20.443822,1.21666 -29.876774,-1.53859 -9.664567,-2.82309 -19.467209,-7.6947 -28.263909,-16.38535 15.267259,-12.45228 30.008068,-24.96246 45.373895,-37.40545 z"
           id="path3249"
           inkscape:connector-curvature="0"
           style="fill-rule:evenodd;stroke:#ffffff;stroke-width:0.5;stroke-miterlimit:10" /><path
           clip-rule="evenodd"
           stroke-miterlimit="10"
           d="m 136.7278,140.51592 c 16.92399,-13.84207 33.74626,-26.74778 50.65084,-40.4177 4.94899,6.12179 6.41291,12.35362 4.35522,18.05636 -2.92328,8.09885 -14.26064,15.16131 -23.63374,22.69748 -9.80406,7.88269 -19.52432,15.03973 -27.75977,21.39432 -0.74205,-0.73143 -0.59768,-2.93774 -0.68613,-4.68355 -0.2537,-5.06973 -1.41594,-10.93592 -2.85012,-16.18439 0.0398,-0.2809 -0.30087,-0.60241 -0.0763,-0.86252 z"
           id="path3251"
           inkscape:connector-curvature="0"
           style="fill-rule:evenodd;stroke:#ffffff;stroke-width:0.5;stroke-miterlimit:10" /><path
           clip-rule="evenodd"
           stroke-miterlimit="10"
           d="m 115.11423,161.89582 c 10.1918,9.89914 20.15186,21.9183 30.28942,32.31015 -5.14615,2.84935 -10.33505,6.09876 -15.23805,6.70984 -6.57986,-11.58296 -13.40638,-23.19342 -20.28852,-34.80921 1.66248,-0.8927 4.52183,-2.37945 5.23715,-4.21078 z"
           id="path3253"
           inkscape:connector-curvature="0"
           style="fill-rule:evenodd;stroke:#ffffff;stroke-width:0.5;stroke-miterlimit:10" /><path
           clip-rule="evenodd"
           stroke-miterlimit="10"
           d="m 183.92843,130.28015 c 3.06768,7.50994 4.39496,13.99792 1.51233,20.64878 -2.81833,6.50422 -11.7379,12.82502 -19.66844,19.20135 -8.13784,6.543 -16.60223,13.34855 -23.38013,18.79813 -2.64148,-2.91509 -5.31797,-5.52102 -7.92999,-8.71386 3.86186,-4.9861 5.60558,-10.20159 5.62156,-15.60619 14.5932,-11.24309 29.22981,-22.87266 43.84467,-34.32821 z"
           id="path3255"
           inkscape:connector-curvature="0"
           style="fill-rule:evenodd;stroke:#ffffff;stroke-width:0.5;stroke-miterlimit:10" /><path
           clip-rule="evenodd"
           stroke-miterlimit="10"
           d="m 108.45407,166.63482 c 7.91607,12.97995 16.16396,27.47538 24.05127,41.02121 -4.45219,7.28409 -13.26473,9.2216 -19.05657,8.85487 -1.93625,-16.65484 -3.29184,-33.24659 -4.9947,-49.87608 z"
           id="path3257"
           inkscape:connector-curvature="0"
           style="fill-rule:evenodd;stroke:#ffffff;stroke-width:0.5;stroke-miterlimit:10" /></g></g><path
       inkscape:connector-curvature="0"
       id="path3259"
       d="m 159.34127,39.77061 10.46424,0.87202"
       style="fill:none;stroke:#ffffff;stroke-width:1.5;stroke-linecap:butt;stroke-linejoin:miter;stroke-miterlimit:4;stroke-opacity:1;stroke-dasharray:none" /><path
       inkscape:connector-curvature="0"
       id="path3261"
       d="m 170.68623,51.261888 26.43385,1.72469"
       style="fill:#ffffff;fill-opacity:1;stroke:#ffffff;stroke-width:1.29999995;stroke-linecap:butt;stroke-linejoin:miter;stroke-miterlimit:4;stroke-opacity:1;stroke-dasharray:none" /><path
       inkscape:connector-curvature="0"
       id="path3263"
       d="M 97.42782,194.84492 99.7532,207.0532"
       style="fill:none;stroke:#ffffff;stroke-width:1.30000007;stroke-linecap:butt;stroke-linejoin:miter;stroke-miterlimit:4;stroke-opacity:1;stroke-dasharray:none" /><path
       inkscape:connector-curvature="0"
       id="path3265"
       d="M 58.76824,178.27653 44.67058,192.37419"
       style="fill:none;stroke:#ffffff;stroke-width:1.30000007;stroke-linecap:butt;stroke-linejoin:miter;stroke-miterlimit:4;stroke-opacity:1;stroke-dasharray:none" /><path
       inkscape:connector-curvature="0"
       id="path3267"
       d="M 48.15866,169.26565 37.40374,175.8058"
       style="fill:none;stroke:#ffffff;stroke-width:1.30000007;stroke-linecap:butt;stroke-linejoin:miter;stroke-miterlimit:4;stroke-opacity:1;stroke-dasharray:none" /><path
       inkscape:connector-curvature="0"
       id="path3269"
       d="m 38.71177,157.2027 -5.5228,2.03471"
       style="fill:none;stroke:#ffffff;stroke-width:1.30000007;stroke-linecap:butt;stroke-linejoin:miter;stroke-miterlimit:4;stroke-opacity:1;stroke-dasharray:none" /></g></g></svg>